/* XPM */
static char * idchain128_xpm[] = {
"128 128 9 1",
" 	c None",
".	c #F49819",
"+	c #F19319",
"@	c #F0911A",
"#	c #CA451D",
"$	c #CA441D",
"%	c #4B1F54",
"&	c #792B4B",
"*	c #4C1F54",
" .........................................                                            ......................................... ",
"...........................................                                          ...........................................",
"...........................................                                          ...........................................",
"...........................................                                          ...........................................",
"...........................................                                          ...........................................",
"...........................................                                          ...........................................",
"...........................................                                          ...........................................",
"...........................................                                          ...........................................",
"...........................................                                          ...........................................",
"...........................................                                          ...........................................",
"...........................................                                          ...........................................",
"...........................................                                          ...........................................",
"...........................................                                          ...........................................",
"...........................................                                          ...........................................",
"...........................................                                          ...........................................",
"...........................................                                          ...........................................",
"...........................................                                          ...........................................",
"...........................................                                          ...........................................",
"...........................................                                          ...........................................",
"...........................................                                          ...........................................",
"...........................................                                          ...........................................",
"...........................................                                          ...........................................",
"...........................................                                          ...........................................",
"...........................................                                          ...........................................",
"...........................................                                          ...........................................",
"...........................................                                          ...........................................",
"...........................................                                          ...........................................",
"...........................................                                          ...........................................",
"...........................................                                          ...........................................",
"...........................................                                          ...........................................",
"...........................................                                          ...........................................",
"...........................................                                          ...........................................",
"...........................................                                          ...........................................",
"...........................................                                          ...........................................",
"...........................................                                          ...........................................",
"...........................................                                          ...........................................",
"...........................................                                          ...........................................",
"...........................................                                          ...........................................",
"...........................................                                          ...........................................",
"...........................................                                          ...........................................",
"...........................................                                          ...........................................",
"...........................................                                          ...........................................",
"..........................................+                                          @..........................................",
"                                           #$$$$$$$$$$$$$$$$$$$$$$$$$$$$$$$$$$$$$$$$$                                           ",
"                                           $$$$$$$$$$$$$$$$$$$$$$$$$$$$$$$$$$$$$$$$$$                                           ",
"                                           $$$$$$$$$$$$$$$$$$$$$$$$$$$$$$$$$$$$$$$$$$                                           ",
"                                           $$$$$$$$$$$$$$$$$$$$$$$$$$$$$$$$$$$$$$$$$$                                           ",
"                                           $$$$$$$$$$$$$$$$$$$$$$$$$$$$$$$$$$$$$$$$$$                                           ",
"                                           $$$$$$$$$$$$$$$$$$$$$$$$$$$$$$$$$$$$$$$$$$                                           ",
"                                           $$$$$$$$$$$$$$$$$$$$$$$$$$$$$$$$$$$$$$$$$$                                           ",
"                                           $$$$$$$$$$$$$$$$$$$$$$$$$$$$$$$$$$$$$$$$$$                                           ",
"                                           $$$$$$$$$$$$$$$$$$$$$$$$$$$$$$$$$$$$$$$$$$                                           ",
"                                           $$$$$$$$$$$$$$$$$$$$$$$$$$$$$$$$$$$$$$$$$$                                           ",
"                                           $$$$$$$$$$$$$$$$$$$$$$$$$$$$$$$$$$$$$$$$$$                                           ",
"                                           $$$$$$$$$$$$$$$$$$$$$$$$$$$$$$$$$$$$$$$$$$                                           ",
"                                           $$$$$$$$$$$$$$$$$$$$$$$$$$$$$$$$$$$$$$$$$$                                           ",
"                                           $$$$$$$$$$$$$$$$$$$$$$$$$$$$$$$$$$$$$$$$$$                                           ",
"                                           $$$$$$$$$$$$$$$$$$$$$$$$$$$$$$$$$$$$$$$$$$                                           ",
"                                           $$$$$$$$$$$$$$$$$$$$$$$$$$$$$$$$$$$$$$$$$$                                           ",
"                                           $$$$$$$$$$$$$$$$$$$$$$$$$$$$$$$$$$$$$$$$$$                                           ",
"                                           $$$$$$$$$$$$$$$$$$$$$$$$$$$$$$$$$$$$$$$$$$                                           ",
"                                           $$$$$$$$$$$$$$$$$$$$$$$$$$$$$$$$$$$$$$$$$$                                           ",
"                                           $$$$$$$$$$$$$$$$$$$$$$$$$$$$$$$$$$$$$$$$$$                                           ",
"                                           $$$$$$$$$$$$$$$$$$$$$$$$$$$$$$$$$$$$$$$$$$                                           ",
"                                           $$$$$$$$$$$$$$$$$$$$$$$$$$$$$$$$$$$$$$$$$$                                           ",
"                                           $$$$$$$$$$$$$$$$$$$$$$$$$$$$$$$$$$$$$$$$$$                                           ",
"                                           $$$$$$$$$$$$$$$$$$$$$$$$$$$$$$$$$$$$$$$$$$                                           ",
"                                           $$$$$$$$$$$$$$$$$$$$$$$$$$$$$$$$$$$$$$$$$$                                           ",
"                                           $$$$$$$$$$$$$$$$$$$$$$$$$$$$$$$$$$$$$$$$$$                                           ",
"                                           $$$$$$$$$$$$$$$$$$$$$$$$$$$$$$$$$$$$$$$$$$                                           ",
"                                           $$$$$$$$$$$$$$$$$$$$$$$$$$$$$$$$$$$$$$$$$$                                           ",
"                                           $$$$$$$$$$$$$$$$$$$$$$$$$$$$$$$$$$$$$$$$$$                                           ",
"                                           $$$$$$$$$$$$$$$$$$$$$$$$$$$$$$$$$$$$$$$$$$                                           ",
"                                           $$$$$$$$$$$$$$$$$$$$$$$$$$$$$$$$$$$$$$$$$$                                           ",
"                                           $$$$$$$$$$$$$$$$$$$$$$$$$$$$$$$$$$$$$$$$$$                                           ",
"                                           $$$$$$$$$$$$$$$$$$$$$$$$$$$$$$$$$$$$$$$$$$                                           ",
"                                           $$$$$$$$$$$$$$$$$$$$$$$$$$$$$$$$$$$$$$$$$$                                           ",
"                                           $$$$$$$$$$$$$$$$$$$$$$$$$$$$$$$$$$$$$$$$$$                                           ",
"                                           $$$$$$$$$$$$$$$$$$$$$$$$$$$$$$$$$$$$$$$$$$                                           ",
"                                           $$$$$$$$$$$$$$$$$$$$$$$$$$$$$$$$$$$$$$$$$$                                           ",
"                                           $$$$$$$$$$$$$$$$$$$$$$$$$$$$$$$$$$$$$$$$$$                                           ",
"                                           $$$$$$$$$$$$$$$$$$$$$$$$$$$$$$$$$$$$$$$$$$                                           ",
"                                           $$$$$$$$$$$$$$$$$$$$$$$$$$$$$$$$$$$$$$$$$$                                           ",
"                                           $$$$$$$$$$$$$$$$$$$$$$$$$$$$$$$$$$$$$$$$$$                                           ",
"                                           $$$$$$$$$$$$$$$$$$$$$$$$$$$$$$$$$$$$$$$$$$                                           ",
" %%%%%%%%%%%%%%%%%%%%%%%%%%%%%%%%%%%%%%%%%&                                           %%%%%%%%%%%%%%%%%%%%%%%%%%%%%%%%%%%%%%%%% ",
"%%%%%%%%%%%%%%%%%%%%%%%%%%%%%%%%%%%%%%%%%%*                                          *%%%%%%%%%%%%%%%%%%%%%%%%%%%%%%%%%%%%%%%%%%",
"%%%%%%%%%%%%%%%%%%%%%%%%%%%%%%%%%%%%%%%%%%%                                          %%%%%%%%%%%%%%%%%%%%%%%%%%%%%%%%%%%%%%%%%%%",
"%%%%%%%%%%%%%%%%%%%%%%%%%%%%%%%%%%%%%%%%%%%                                          %%%%%%%%%%%%%%%%%%%%%%%%%%%%%%%%%%%%%%%%%%%",
"%%%%%%%%%%%%%%%%%%%%%%%%%%%%%%%%%%%%%%%%%%%                                          %%%%%%%%%%%%%%%%%%%%%%%%%%%%%%%%%%%%%%%%%%%",
"%%%%%%%%%%%%%%%%%%%%%%%%%%%%%%%%%%%%%%%%%%%                                          %%%%%%%%%%%%%%%%%%%%%%%%%%%%%%%%%%%%%%%%%%%",
"%%%%%%%%%%%%%%%%%%%%%%%%%%%%%%%%%%%%%%%%%%%                                          %%%%%%%%%%%%%%%%%%%%%%%%%%%%%%%%%%%%%%%%%%%",
"%%%%%%%%%%%%%%%%%%%%%%%%%%%%%%%%%%%%%%%%%%%                                          %%%%%%%%%%%%%%%%%%%%%%%%%%%%%%%%%%%%%%%%%%%",
"%%%%%%%%%%%%%%%%%%%%%%%%%%%%%%%%%%%%%%%%%%%                                          %%%%%%%%%%%%%%%%%%%%%%%%%%%%%%%%%%%%%%%%%%%",
"%%%%%%%%%%%%%%%%%%%%%%%%%%%%%%%%%%%%%%%%%%%                                          %%%%%%%%%%%%%%%%%%%%%%%%%%%%%%%%%%%%%%%%%%%",
"%%%%%%%%%%%%%%%%%%%%%%%%%%%%%%%%%%%%%%%%%%%                                          %%%%%%%%%%%%%%%%%%%%%%%%%%%%%%%%%%%%%%%%%%%",
"%%%%%%%%%%%%%%%%%%%%%%%%%%%%%%%%%%%%%%%%%%%                                          %%%%%%%%%%%%%%%%%%%%%%%%%%%%%%%%%%%%%%%%%%%",
"%%%%%%%%%%%%%%%%%%%%%%%%%%%%%%%%%%%%%%%%%%%                                          %%%%%%%%%%%%%%%%%%%%%%%%%%%%%%%%%%%%%%%%%%%",
"%%%%%%%%%%%%%%%%%%%%%%%%%%%%%%%%%%%%%%%%%%%                                          %%%%%%%%%%%%%%%%%%%%%%%%%%%%%%%%%%%%%%%%%%%",
"%%%%%%%%%%%%%%%%%%%%%%%%%%%%%%%%%%%%%%%%%%%                                          %%%%%%%%%%%%%%%%%%%%%%%%%%%%%%%%%%%%%%%%%%%",
"%%%%%%%%%%%%%%%%%%%%%%%%%%%%%%%%%%%%%%%%%%%                                          %%%%%%%%%%%%%%%%%%%%%%%%%%%%%%%%%%%%%%%%%%%",
"%%%%%%%%%%%%%%%%%%%%%%%%%%%%%%%%%%%%%%%%%%%                                          %%%%%%%%%%%%%%%%%%%%%%%%%%%%%%%%%%%%%%%%%%%",
"%%%%%%%%%%%%%%%%%%%%%%%%%%%%%%%%%%%%%%%%%%%                                          %%%%%%%%%%%%%%%%%%%%%%%%%%%%%%%%%%%%%%%%%%%",
"%%%%%%%%%%%%%%%%%%%%%%%%%%%%%%%%%%%%%%%%%%%                                          %%%%%%%%%%%%%%%%%%%%%%%%%%%%%%%%%%%%%%%%%%%",
"%%%%%%%%%%%%%%%%%%%%%%%%%%%%%%%%%%%%%%%%%%%                                          %%%%%%%%%%%%%%%%%%%%%%%%%%%%%%%%%%%%%%%%%%%",
"%%%%%%%%%%%%%%%%%%%%%%%%%%%%%%%%%%%%%%%%%%%                                          %%%%%%%%%%%%%%%%%%%%%%%%%%%%%%%%%%%%%%%%%%%",
"%%%%%%%%%%%%%%%%%%%%%%%%%%%%%%%%%%%%%%%%%%%                                          %%%%%%%%%%%%%%%%%%%%%%%%%%%%%%%%%%%%%%%%%%%",
"%%%%%%%%%%%%%%%%%%%%%%%%%%%%%%%%%%%%%%%%%%%                                          %%%%%%%%%%%%%%%%%%%%%%%%%%%%%%%%%%%%%%%%%%%",
"%%%%%%%%%%%%%%%%%%%%%%%%%%%%%%%%%%%%%%%%%%%                                          %%%%%%%%%%%%%%%%%%%%%%%%%%%%%%%%%%%%%%%%%%%",
"%%%%%%%%%%%%%%%%%%%%%%%%%%%%%%%%%%%%%%%%%%%                                          %%%%%%%%%%%%%%%%%%%%%%%%%%%%%%%%%%%%%%%%%%%",
"%%%%%%%%%%%%%%%%%%%%%%%%%%%%%%%%%%%%%%%%%%%                                          %%%%%%%%%%%%%%%%%%%%%%%%%%%%%%%%%%%%%%%%%%%",
"%%%%%%%%%%%%%%%%%%%%%%%%%%%%%%%%%%%%%%%%%%%                                          %%%%%%%%%%%%%%%%%%%%%%%%%%%%%%%%%%%%%%%%%%%",
"%%%%%%%%%%%%%%%%%%%%%%%%%%%%%%%%%%%%%%%%%%%                                          %%%%%%%%%%%%%%%%%%%%%%%%%%%%%%%%%%%%%%%%%%%",
"%%%%%%%%%%%%%%%%%%%%%%%%%%%%%%%%%%%%%%%%%%%                                          %%%%%%%%%%%%%%%%%%%%%%%%%%%%%%%%%%%%%%%%%%%",
"%%%%%%%%%%%%%%%%%%%%%%%%%%%%%%%%%%%%%%%%%%%                                          %%%%%%%%%%%%%%%%%%%%%%%%%%%%%%%%%%%%%%%%%%%",
"%%%%%%%%%%%%%%%%%%%%%%%%%%%%%%%%%%%%%%%%%%%                                          %%%%%%%%%%%%%%%%%%%%%%%%%%%%%%%%%%%%%%%%%%%",
"%%%%%%%%%%%%%%%%%%%%%%%%%%%%%%%%%%%%%%%%%%%                                          %%%%%%%%%%%%%%%%%%%%%%%%%%%%%%%%%%%%%%%%%%%",
"%%%%%%%%%%%%%%%%%%%%%%%%%%%%%%%%%%%%%%%%%%%                                          %%%%%%%%%%%%%%%%%%%%%%%%%%%%%%%%%%%%%%%%%%%",
"%%%%%%%%%%%%%%%%%%%%%%%%%%%%%%%%%%%%%%%%%%%                                          %%%%%%%%%%%%%%%%%%%%%%%%%%%%%%%%%%%%%%%%%%%",
"%%%%%%%%%%%%%%%%%%%%%%%%%%%%%%%%%%%%%%%%%%%                                          %%%%%%%%%%%%%%%%%%%%%%%%%%%%%%%%%%%%%%%%%%%",
"%%%%%%%%%%%%%%%%%%%%%%%%%%%%%%%%%%%%%%%%%%%                                          %%%%%%%%%%%%%%%%%%%%%%%%%%%%%%%%%%%%%%%%%%%",
"%%%%%%%%%%%%%%%%%%%%%%%%%%%%%%%%%%%%%%%%%%%                                          %%%%%%%%%%%%%%%%%%%%%%%%%%%%%%%%%%%%%%%%%%%",
"%%%%%%%%%%%%%%%%%%%%%%%%%%%%%%%%%%%%%%%%%%%                                          %%%%%%%%%%%%%%%%%%%%%%%%%%%%%%%%%%%%%%%%%%%",
"%%%%%%%%%%%%%%%%%%%%%%%%%%%%%%%%%%%%%%%%%%%                                          %%%%%%%%%%%%%%%%%%%%%%%%%%%%%%%%%%%%%%%%%%%",
"%%%%%%%%%%%%%%%%%%%%%%%%%%%%%%%%%%%%%%%%%%%                                          %%%%%%%%%%%%%%%%%%%%%%%%%%%%%%%%%%%%%%%%%%%",
"%%%%%%%%%%%%%%%%%%%%%%%%%%%%%%%%%%%%%%%%%%%                                          %%%%%%%%%%%%%%%%%%%%%%%%%%%%%%%%%%%%%%%%%%%",
"%%%%%%%%%%%%%%%%%%%%%%%%%%%%%%%%%%%%%%%%%%%                                          %%%%%%%%%%%%%%%%%%%%%%%%%%%%%%%%%%%%%%%%%%%",
"%%%%%%%%%%%%%%%%%%%%%%%%%%%%%%%%%%%%%%%%%%%                                          %%%%%%%%%%%%%%%%%%%%%%%%%%%%%%%%%%%%%%%%%%%"};
