/* XPM */
static char * idchain64_xpm[] = {
"64 64 8 1",
" 	c None",
".	c #F49819",
"+	c #DA6B1C",
"@	c #CA451D",
"#	c #CA441D",
"$	c #B53D31",
"%	c #B83E2F",
"&	c #4B1F54",
".....................                      .....................",
".....................                      .....................",
".....................                      .....................",
".....................                      .....................",
".....................                      .....................",
".....................                      .....................",
".....................                      .....................",
".....................                      .....................",
".....................                      .....................",
".....................                      .....................",
".....................                      .....................",
".....................                      .....................",
".....................                      .....................",
".....................                      .....................",
".....................                      .....................",
".....................                      .....................",
".....................                      .....................",
".....................                      .....................",
".....................                      .....................",
".....................                      .....................",
".....................                      .....................",
"                     +@###################                      ",
"                     ######################                     ",
"                     ######################                     ",
"                     ######################                     ",
"                     ######################                     ",
"                     ######################                     ",
"                     ######################                     ",
"                     ######################                     ",
"                     ######################                     ",
"                     ######################                     ",
"                     ######################                     ",
"                     ######################                     ",
"                     ######################                     ",
"                     ######################                     ",
"                     ######################                     ",
"                     ######################                     ",
"                     ######################                     ",
"                     ######################                     ",
"                     ######################                     ",
"                     ######################                     ",
"                     ######################                     ",
"                     $####################%                     ",
"&&&&&&&&&&&&&&&&&&&&&                      &&&&&&&&&&&&&&&&&&&&&",
"&&&&&&&&&&&&&&&&&&&&&                      &&&&&&&&&&&&&&&&&&&&&",
"&&&&&&&&&&&&&&&&&&&&&                      &&&&&&&&&&&&&&&&&&&&&",
"&&&&&&&&&&&&&&&&&&&&&                      &&&&&&&&&&&&&&&&&&&&&",
"&&&&&&&&&&&&&&&&&&&&&                      &&&&&&&&&&&&&&&&&&&&&",
"&&&&&&&&&&&&&&&&&&&&&                      &&&&&&&&&&&&&&&&&&&&&",
"&&&&&&&&&&&&&&&&&&&&&                      &&&&&&&&&&&&&&&&&&&&&",
"&&&&&&&&&&&&&&&&&&&&&                      &&&&&&&&&&&&&&&&&&&&&",
"&&&&&&&&&&&&&&&&&&&&&                      &&&&&&&&&&&&&&&&&&&&&",
"&&&&&&&&&&&&&&&&&&&&&                      &&&&&&&&&&&&&&&&&&&&&",
"&&&&&&&&&&&&&&&&&&&&&                      &&&&&&&&&&&&&&&&&&&&&",
"&&&&&&&&&&&&&&&&&&&&&                      &&&&&&&&&&&&&&&&&&&&&",
"&&&&&&&&&&&&&&&&&&&&&                      &&&&&&&&&&&&&&&&&&&&&",
"&&&&&&&&&&&&&&&&&&&&&                      &&&&&&&&&&&&&&&&&&&&&",
"&&&&&&&&&&&&&&&&&&&&&                      &&&&&&&&&&&&&&&&&&&&&",
"&&&&&&&&&&&&&&&&&&&&&                      &&&&&&&&&&&&&&&&&&&&&",
"&&&&&&&&&&&&&&&&&&&&&                      &&&&&&&&&&&&&&&&&&&&&",
"&&&&&&&&&&&&&&&&&&&&&                      &&&&&&&&&&&&&&&&&&&&&",
"&&&&&&&&&&&&&&&&&&&&&                      &&&&&&&&&&&&&&&&&&&&&",
"&&&&&&&&&&&&&&&&&&&&&                      &&&&&&&&&&&&&&&&&&&&&",
"&&&&&&&&&&&&&&&&&&&&&                      &&&&&&&&&&&&&&&&&&&&&"};
