/* XPM */
static char * idchain16_xpm[] = {
"16 16 8 1",
" 	c None",
".	c #F49819",
"+	c #D6641C",
"@	c #CA441D",
"#	c #D6631C",
"$	c #B53D31",
"%	c #B63E31",
"&	c #4B1F54",
".....      .....",
".....      .....",
".....      .....",
".....      .....",
".....      .....",
"     +@@@@#     ",
"     @@@@@@     ",
"     @@@@@@     ",
"     @@@@@@     ",
"     @@@@@@     ",
"     $@@@@%     ",
"&&&&&      &&&&&",
"&&&&&      &&&&&",
"&&&&&      &&&&&",
"&&&&&      &&&&&",
"&&&&&      &&&&&"};
