/* XPM */
static char * idchain32_xpm[] = {
"32 32 8 1",
" 	c None",
".	c #F49819",
"+	c #ED8C1A",
"@	c #EC8B1A",
"#	c #CA441D",
"$	c #4B1F54",
"%	c #7A2B4B",
"&	c #7D2C4A",
"...........          ...........",
"...........          ...........",
"...........          ...........",
"...........          ...........",
"...........          ...........",
"...........          ...........",
"...........          ...........",
"...........          ...........",
"...........          ...........",
"...........          ...........",
"..........+          @..........",
"           ##########           ",
"           ##########           ",
"           ##########           ",
"           ##########           ",
"           ##########           ",
"           ##########           ",
"           ##########           ",
"           ##########           ",
"           ##########           ",
"           ##########           ",
"$$$$$$$$$$%          &$$$$$$$$$$",
"$$$$$$$$$$$          $$$$$$$$$$$",
"$$$$$$$$$$$          $$$$$$$$$$$",
"$$$$$$$$$$$          $$$$$$$$$$$",
"$$$$$$$$$$$          $$$$$$$$$$$",
"$$$$$$$$$$$          $$$$$$$$$$$",
"$$$$$$$$$$$          $$$$$$$$$$$",
"$$$$$$$$$$$          $$$$$$$$$$$",
"$$$$$$$$$$$          $$$$$$$$$$$",
"$$$$$$$$$$$          $$$$$$$$$$$",
"$$$$$$$$$$$          $$$$$$$$$$$"};
